<svg width="1200" height="700" viewBox="0 0 1200 700" fill="none" xmlns="http://www.w3.org/2000/svg">
  <defs>
    <linearGradient id="bg" x1="0" y1="0" x2="1" y2="1">
      <stop offset="0%" stop-color="#0b1220" />
      <stop offset="55%" stop-color="#131a2f" />
      <stop offset="100%" stop-color="#10192d" />
    </linearGradient>
    <linearGradient id="accent" x1="0" y1="0" x2="1" y2="1">
      <stop offset="0%" stop-color="#ff9d6c" />
      <stop offset="100%" stop-color="#6cf6ff" />
    </linearGradient>
  </defs>
  <rect width="1200" height="700" rx="32" fill="url(#bg)" />
  <rect x="80" y="110" width="500" height="120" rx="22" fill="url(#accent)" opacity="0.22" />
  <rect x="80" y="270" width="420" height="28" rx="14" fill="#1b243f" />
  <rect x="80" y="320" width="360" height="24" rx="12" fill="#1b243f" />
  <rect x="80" y="370" width="520" height="24" rx="12" fill="#1b243f" />
  <rect x="80" y="420" width="280" height="24" rx="12" fill="#1b243f" />
  <rect x="640" y="140" width="460" height="400" rx="26" fill="#151f38" stroke="#2a365d" stroke-width="2" />
  <rect x="690" y="190" width="360" height="120" rx="20" fill="#1d2948" />
  <rect x="690" y="340" width="260" height="40" rx="20" fill="#1d2948" />
  <rect x="690" y="400" width="320" height="40" rx="20" fill="#1d2948" />
  <circle cx="900" cy="520" r="110" fill="url(#accent)" opacity="0.14" />
  <circle cx="300" cy="560" r="130" fill="url(#accent)" opacity="0.1" />
</svg>