<svg width="1200" height="700" viewBox="0 0 1200 700" fill="none" xmlns="http://www.w3.org/2000/svg">
  <defs>
    <linearGradient id="bg" x1="0" y1="0" x2="1" y2="1">
      <stop offset="0%" stop-color="#0a111f" />
      <stop offset="50%" stop-color="#151d33" />
      <stop offset="100%" stop-color="#0e162a" />
    </linearGradient>
    <linearGradient id="accent" x1="0" y1="0" x2="1" y2="1">
      <stop offset="0%" stop-color="#a78bfa" />
      <stop offset="100%" stop-color="#6cf6ff" />
    </linearGradient>
  </defs>
  <rect width="1200" height="700" rx="32" fill="url(#bg)" />
  <rect x="90" y="100" width="520" height="120" rx="24" fill="url(#accent)" opacity="0.2" />
  <rect x="90" y="260" width="380" height="30" rx="15" fill="#1b2440" />
  <rect x="90" y="310" width="440" height="24" rx="12" fill="#1b2440" />
  <rect x="90" y="360" width="300" height="24" rx="12" fill="#1b2440" />
  <rect x="90" y="410" width="520" height="24" rx="12" fill="#1b2440" />
  <rect x="650" y="130" width="460" height="440" rx="26" fill="#151f38" stroke="#2a365d" stroke-width="2" />
  <rect x="700" y="190" width="360" height="120" rx="20" fill="#1d2948" />
  <rect x="700" y="340" width="300" height="40" rx="20" fill="#1d2948" />
  <rect x="700" y="400" width="320" height="40" rx="20" fill="#1d2948" />
  <circle cx="930" cy="500" r="115" fill="url(#accent)" opacity="0.16" />
  <circle cx="250" cy="530" r="130" fill="url(#accent)" opacity="0.1" />
</svg>