<svg width="1200" height="700" viewBox="0 0 1200 700" fill="none" xmlns="http://www.w3.org/2000/svg">
  <defs>
    <linearGradient id="bg" x1="0" y1="0" x2="1" y2="1">
      <stop offset="0%" stop-color="#0f1426" />
      <stop offset="55%" stop-color="#141b34" />
      <stop offset="100%" stop-color="#0b0f1f" />
    </linearGradient>
    <linearGradient id="accent" x1="0" y1="0" x2="1" y2="1">
      <stop offset="0%" stop-color="#6cf6ff" />
      <stop offset="100%" stop-color="#a78bfa" />
    </linearGradient>
  </defs>
  <rect width="1200" height="700" rx="32" fill="url(#bg)" />
  <rect x="70" y="90" width="460" height="110" rx="18" fill="url(#accent)" opacity="0.25" />
  <rect x="70" y="230" width="520" height="34" rx="17" fill="#1f2743" />
  <rect x="70" y="280" width="390" height="24" rx="12" fill="#1a223d" />
  <rect x="70" y="330" width="480" height="24" rx="12" fill="#1a223d" />
  <rect x="70" y="380" width="320" height="24" rx="12" fill="#1a223d" />
  <rect x="680" y="120" width="420" height="460" rx="26" fill="#141c33" stroke="#2a365d" stroke-width="2" />
  <rect x="720" y="170" width="340" height="120" rx="20" fill="#1b2746" />
  <rect x="720" y="320" width="280" height="40" rx="20" fill="#1b2746" />
  <rect x="720" y="380" width="320" height="40" rx="20" fill="#1b2746" />
  <circle cx="970" cy="420" r="88" fill="url(#accent)" opacity="0.18" />
  <circle cx="240" cy="540" r="120" fill="url(#accent)" opacity="0.12" />
</svg>